<?xml version="1.0" encoding="UTF-8" standalone="no" ?>
<!DOCTYPE svg PUBLIC "-//W3C//DTD SVG 1.1//EN" "http://www.w3.org/Graphics/SVG/1.1/DTD/svg11.dtd">
<svg xmlns="http://www.w3.org/2000/svg" xmlns:xlink="http://www.w3.org/1999/xlink" version="1.1" width="1080" height="1080" viewBox="0 0 1080 1080" xml:space="preserve">
<desc>Created with Fabric.js 5.2.4</desc>
<defs>
</defs>
<rect x="0" y="0" width="100%" height="100%" fill="transparent"></rect>
<g transform="matrix(1 0 0 1 540 540)" id="66d02bcf-3b66-48e7-9d1c-e9c3432c6c28"  >
<rect style="stroke: none; stroke-width: 1; stroke-dasharray: none; stroke-linecap: butt; stroke-dashoffset: 0; stroke-linejoin: miter; stroke-miterlimit: 4; fill: rgb(255,255,255); fill-rule: nonzero; opacity: 1; visibility: hidden;" vector-effect="non-scaling-stroke"  x="-540" y="-540" rx="0" ry="0" width="1080" height="1080" />
</g>
<g transform="matrix(1 0 0 1 540 540)" id="1451c9a6-72ee-4d1e-a5ea-33c9d5d48c5d"  >
</g>
<g transform="matrix(1.35 0 0 1.35 540 565.76)" id="b9fcdae3-9df3-4da8-8e02-191ccb00718c"  >
<path style="stroke: rgb(255,246,0); stroke-opacity: 0.67; stroke-width: 1; stroke-dasharray: none; stroke-linecap: butt; stroke-dashoffset: 0; stroke-linejoin: miter; stroke-miterlimit: 4; fill: rgb(19,1,168); fill-rule: nonzero; opacity: 1;" vector-effect="non-scaling-stroke"  transform=" translate(-256, -256)" d="M 256 0 C 390.4 0 480 35.2 480 80 L 480 96 L 480 128 C 497.7 128 512 142.3 512 160 L 512 224 C 512 241.7 497.7 256 480 256 L 480 416 C 480 433.7 465.7 448 448 448 L 448 480 C 448 497.7 433.7 512 416 512 L 384 512 C 366.3 512 352 497.7 352 480 L 352 448 L 160 448 L 160 480 C 160 497.7 145.7 512 128 512 L 96 512 C 78.3 512 64 497.7 64 480 L 64 448 C 46.3 448 32 433.7 32 416 L 32 256 C 14.3 256 0 241.7 0 224 L 0 160 C 0 142.3 14.3 128 32 128 L 32 128 L 32 96 L 32 96 L 32 80 C 32 35.2 121.6 0 256 0 z M 96 160 L 96 256 C 96 273.7 110.3 288 128 288 L 240 288 L 240 128 L 128 128 C 110.3 128 96 142.3 96 160 z M 272 288 L 384 288 C 401.7 288 416 273.7 416 256 L 416 160 C 416 142.3 401.7 128 384 128 L 272 128 L 272 288 z M 112 400 C 129.7 400 144 385.7 144 368 C 144 350.3 129.7 336 112 336 C 94.30000000000001 336 80 350.3 80 368 C 80 385.7 94.3 400 112 400 z M 400 400 C 417.7 400 432 385.7 432 368 C 432 350.3 417.7 336 400 336 C 382.3 336 368 350.3 368 368 C 368 385.7 382.3 400 400 400 z M 352 80 C 352 71.2 344.8 64 336 64 L 176 64 C 167.2 64 160 71.2 160 80 C 160 88.8 167.2 96 176 96 L 336 96 C 344.8 96 352 88.8 352 80 z" stroke-linecap="round" />
</g>
</svg>