<?xml version="1.0" encoding="UTF-8" standalone="no" ?>
<!DOCTYPE svg PUBLIC "-//W3C//DTD SVG 1.1//EN" "http://www.w3.org/Graphics/SVG/1.1/DTD/svg11.dtd">
<svg xmlns="http://www.w3.org/2000/svg" xmlns:xlink="http://www.w3.org/1999/xlink" version="1.1" width="1080" height="1080" viewBox="0 0 1080 1080" xml:space="preserve">
<desc>Created with Fabric.js 5.2.4</desc>
<defs>
</defs>
<g transform="matrix(1 0 0 1 540 540)" id="95c53b16-09e8-47eb-8d00-1cd92d249534"  >
<rect style="stroke: none; stroke-width: 1; stroke-dasharray: none; stroke-linecap: butt; stroke-dashoffset: 0; stroke-linejoin: miter; stroke-miterlimit: 4; fill: rgb(255,255,255); fill-rule: nonzero; opacity: 1; visibility: hidden;" vector-effect="non-scaling-stroke"  x="-540" y="-540" rx="0" ry="0" width="1080" height="1080" />
</g>
<g transform="matrix(1 0 0 1 540 540)" id="3bf9e62f-ec23-462a-8047-0bd36274f9bd"  >
</g>
<g transform="matrix(1.12 0 0 1.12 558.93 521.91)" id="309678aa-96f3-468d-879e-39212a571c41"  >
<path style="stroke: rgb(0,0,0); stroke-width: 0; stroke-dasharray: none; stroke-linecap: butt; stroke-dashoffset: 0; stroke-linejoin: miter; stroke-miterlimit: 4; fill: rgb(222,0,0); fill-rule: nonzero; opacity: 1;" vector-effect="non-scaling-stroke"  transform=" translate(-192, -255.34)" d="M 215.7 499.2 C 267 435 384 279.4 384 192 C 384 86 298 0 192 0 C 86 0 0 86 0 192 C 0 279.4 117 435 168.3 499.2 C 180.60000000000002 514.5 203.4 514.5 215.70000000000002 499.2 z M 192 256 C 156.7 256 128 227.3 128 192 C 128 156.7 156.7 128 192 128 C 227.3 128 256 156.7 256 192 C 256 227.3 227.3 256 192 256 z" stroke-linecap="round" />
</g>
</svg>